<svg xmlns="http://www.w3.org/2000/svg" width="100" height="100" viewBox="0 0 100 100">
	<path fill="white" d="M67.041 78.553h-6.49a1.73 1.73 0 0 0-1.73 1.73h-.007v3.01H18.173V36.16h17.723a1.73 1.73 0 0 0 1.73-1.73V16.707h21.188v12.34h.016a1.726 1.726 0 0 0 1.721 1.641h6.49c.925 0 1.674-.728 1.721-1.641h.009V12.499h-.005V8.48a1.73 1.73 0 0 0-1.73-1.73H34.165L8.216 32.7v58.819c0 .956.774 1.73 1.73 1.73h57.089a1.73 1.73 0 0 0 1.73-1.73v-2.448h.005v-8.79a1.73 1.73 0 0 0-1.729-1.728" />
	<path fill="white" d="M91.277 39.04L79.656 27.419a1.73 1.73 0 0 0-2.447 0L45.404 59.224l.069.069l-.109-.029l-4.351 16.237l.003.001a1.72 1.72 0 0 0 .412 1.765a1.72 1.72 0 0 0 1.948.341l.002.006l16.08-4.309l-.01-.037l.023.024l31.806-31.806a1.73 1.73 0 0 0 0-2.446M46.305 72.353l2.584-9.643l7.059 7.059z" />
</svg>